<?xml version="1.0" standalone="no"?>
<!DOCTYPE svg PUBLIC "-//W3C//DTD SVG 20010904//EN"
 "http://www.w3.org/TR/2001/REC-SVG-20010904/DTD/svg10.dtd">
<svg version="1.0" xmlns="http://www.w3.org/2000/svg"
 width="360.000000pt" height="642.000000pt" viewBox="0 0 360.000000 642.000000"
 preserveAspectRatio="xMidYMid meet" >

<g transform="translate(0.000000,642.000000) scale(0.100000,-0.100000)"
fill="#FF0000" stroke="none">
<path d="M1760 6410 c0 -6 -22 -10 -49 -10 -28 0 -53 -4 -56 -10 -3 -5 -19
-10 -36 -10 -16 0 -29 -4 -29 -10 0 -5 -12 -13 -27 -16 -30 -8 -72 -35 -109
-71 -13 -13 -28 -23 -34 -23 -5 0 -10 -6 -10 -12 0 -7 -15 -29 -33 -48 -29
-31 -32 -41 -31 -90 1 -30 13 -95 28 -145 14 -49 26 -93 26 -98 0 -5 -15 -6
-34 -3 -40 8 -54 -12 -34 -48 30 -54 80 -126 87 -126 5 0 11 -52 15 -115 7
-136 27 -197 84 -259 21 -23 54 -70 72 -105 19 -35 46 -76 61 -93 24 -25 31
-27 49 -18 11 6 20 20 20 30 0 35 17 21 28 -23 15 -59 51 -109 92 -129 50 -26
154 -23 276 6 55 14 124 28 152 32 l51 6 -24 32 c-38 50 -59 107 -43 117 51
32 322 38 383 8 42 -20 58 -59 50 -119 -4 -27 -12 -56 -19 -65 -12 -16 -15
-16 -55 4 l-42 22 31 -42 c34 -47 37 -61 15 -79 -19 -16 -120 2 -178 31 -40
21 -57 18 -57 -10 0 -25 -45 -64 -125 -109 -38 -21 -135 -75 -215 -120 -80
-45 -166 -87 -192 -94 -47 -12 -48 -11 -79 17 -33 32 -62 82 -85 149 -15 42
-20 185 -9 253 l6 38 -31 -35 c-63 -72 -83 -125 -90 -245 -8 -155 -31 -183
-178 -224 -41 -11 -82 -23 -92 -26 -12 -4 -19 1 -23 14 -3 13 -17 21 -45 26
-57 9 -125 55 -145 98 -19 39 -13 85 19 167 9 23 14 43 11 46 -6 6 -59 -19
-101 -49 -16 -11 -53 -57 -82 -103 -47 -72 -77 -104 -99 -104 -16 0 -35 76
-35 137 0 162 47 240 185 310 39 20 131 77 205 128 74 51 159 105 188 119 46
23 72 49 61 60 -2 2 -65 -39 -139 -91 -74 -52 -192 -123 -262 -159 -70 -35
-143 -78 -163 -95 -76 -67 -104 -174 -85 -326 11 -90 11 -93 -19 -177 -30 -83
-72 -276 -70 -319 0 -12 9 19 19 68 10 50 29 121 41 160 24 68 25 70 65 78 42
8 75 32 106 76 15 21 19 22 33 11 67 -56 57 -211 -22 -363 -24 -46 -57 -88
-101 -127 -36 -33 -68 -60 -72 -60 -16 0 -32 -62 -28 -107 6 -60 -6 -144 -34
-250 l-23 -83 -62 0 -63 0 0 83 c0 120 22 207 85 332 30 61 55 122 54 135 -1
22 -2 21 -8 -6 -5 -17 -22 -49 -40 -71 -59 -74 -141 -332 -141 -444 0 -24 -7
-39 -25 -54 -19 -14 -37 -54 -66 -140 -21 -66 -42 -137 -46 -158 -3 -21 -15
-44 -26 -52 -11 -7 -35 -35 -54 -61 -78 -110 -102 -304 -51 -415 57 -124 159
-194 283 -194 90 0 138 23 177 84 39 63 79 191 85 276 5 70 5 70 -36 125 -23
30 -46 71 -52 90 -10 32 -8 40 23 87 75 117 108 183 108 217 0 21 12 54 30 83
18 29 44 101 65 183 68 255 101 339 189 485 39 66 31 70 76 -40 l20 -50 -5 55
c-33 333 -34 307 17 270 56 -41 104 -40 216 4 48 19 106 40 130 47 28 8 57 28
84 57 l41 44 38 -45 c47 -55 100 -77 184 -77 35 0 66 -4 69 -8 11 -18 -27 -52
-82 -72 -107 -40 -122 -50 -122 -79 0 -17 11 -36 30 -53 27 -24 30 -32 30 -85
-1 -141 -101 -253 -129 -144 -21 80 -40 251 -30 284 14 51 11 92 -10 111 -23
21 -45 12 -107 -45 -72 -65 -171 -102 -214 -79 -22 12 -23 11 -16 -21 3 -19
15 -42 26 -51 19 -16 24 -15 75 8 97 45 169 44 181 0 13 -53 -43 -114 -158
-172 -55 -27 -68 -39 -68 -57 0 -34 6 -36 48 -16 20 10 60 21 88 25 l51 6 6
-50 c3 -28 13 -65 22 -81 l16 -31 -160 0 c-126 0 -171 4 -218 18 -58 18 -59
18 -75 -2 -8 -12 -21 -55 -28 -96 -7 -45 -29 -113 -55 -170 -24 -52 -55 -124
-70 -160 -38 -89 -153 -492 -227 -789 -53 -215 -58 -246 -45 -256 13 -9 14
-26 7 -106 -8 -89 -34 -244 -66 -391 -8 -36 -49 -153 -91 -260 -85 -218 -86
-224 -98 -536 -7 -166 -10 -194 -24 -199 -34 -10 -46 -22 -45 -44 1 -13 -7
-60 -17 -104 -10 -44 -19 -100 -19 -125 0 -25 -12 -72 -26 -105 -14 -33 -34
-84 -45 -113 -24 -62 -62 -93 -188 -155 -94 -46 -121 -77 -121 -142 0 -75 33
-97 170 -111 73 -7 229 9 305 31 49 15 183 33 700 95 337 41 341 42 225 51
-52 4 -221 15 -375 24 -154 9 -282 18 -283 20 -2 2 -5 26 -6 53 -2 27 -11 72
-21 99 l-18 49 32 101 c17 56 29 107 26 115 -3 8 1 33 10 57 22 64 20 89 -10
97 -14 3 -25 10 -25 14 0 4 17 46 39 92 28 60 53 97 90 132 94 88 115 162 131
458 l10 181 61 94 c33 52 74 130 90 174 16 43 49 119 73 168 l45 89 103 -19
c57 -11 119 -22 138 -25 l35 -6 55 176 c30 97 57 176 60 176 3 0 16 -60 29
-132 25 -143 57 -258 70 -258 33 0 315 42 336 50 15 6 32 10 38 10 21 0 113
-132 161 -231 31 -64 68 -120 116 -174 64 -73 72 -88 101 -179 17 -55 35 -142
40 -195 19 -190 47 -255 136 -317 37 -27 63 -60 115 -146 65 -108 67 -112 48
-125 -32 -22 -24 -68 29 -179 60 -121 85 -211 72 -248 -7 -17 -5 -43 6 -86 8
-34 14 -63 12 -64 -2 -2 -134 -11 -294 -21 -418 -24 -478 -30 -435 -38 36 -7
440 -62 720 -98 85 -11 173 -26 195 -34 109 -36 279 -42 378 -13 38 11 67 47
67 83 0 31 -39 92 -77 121 -75 57 -130 115 -148 156 -11 24 -32 58 -47 76 -15
18 -28 41 -28 50 0 10 -11 33 -24 50 -13 18 -26 52 -30 75 -4 23 -16 70 -27
105 -11 34 -24 83 -28 110 -6 45 -8 47 -37 46 l-30 -2 -17 147 c-19 161 -53
324 -87 415 -13 32 -60 113 -105 180 -45 67 -91 139 -102 161 -34 66 -92 262
-108 364 -9 53 -22 117 -29 142 -8 25 -12 56 -9 70 2 13 -14 105 -37 204 -23
99 -64 290 -91 425 -49 237 -75 322 -146 480 -17 36 -38 71 -47 79 -32 27 -43
65 -51 170 -4 58 -11 115 -16 128 -25 66 51 324 91 307 54 -23 101 -36 156
-41 61 -6 62 -6 73 -42 17 -58 107 -202 148 -239 66 -59 219 -90 281 -58 63
32 106 177 107 357 l0 116 -42 54 c-25 32 -46 73 -52 101 -15 67 -48 146 -80
193 -15 22 -40 58 -54 79 -24 35 -27 48 -27 125 0 145 -40 256 -124 342 -53
54 -118 83 -239 107 -77 15 -102 25 -114 42 -23 32 -105 81 -218 129 -55 23
-116 53 -136 66 -36 23 -37 25 -44 108 -5 69 -4 90 9 109 22 33 56 171 49 197
-6 22 -46 30 -58 11 -15 -25 -21 -6 -9 28 7 21 16 77 20 123 12 148 -27 233
-130 287 -90 46 -126 61 -126 52z m-212 -380 c61 -39 72 -53 52 -65 -18 -11
-10 -26 20 -36 24 -9 30 -17 30 -40 0 -25 -4 -29 -30 -29 -21 0 -28 -4 -24
-14 4 -11 -7 -16 -43 -21 -76 -10 -84 -14 -81 -38 2 -14 17 -28 41 -40 41 -19
45 -31 20 -59 -26 -29 -60 -23 -84 15 -17 27 -19 42 -14 102 3 39 7 95 8 125
3 78 17 140 32 140 6 0 40 -18 73 -40z m166 -308 c3 -15 8 -51 11 -79 8 -66
-9 -78 -67 -44 -42 24 -49 19 -17 -15 l20 -22 -46 -17 c-25 -10 -48 -15 -51
-12 -3 3 -1 22 5 43 7 25 7 42 1 48 -16 16 -12 23 25 45 32 18 35 19 44 3 7
-13 12 -7 21 28 7 25 14 48 16 52 9 15 33 -5 38 -30z m1046 -998 c34 -30 50
-56 75 -129 36 -108 41 -190 9 -164 -8 6 -14 19 -14 29 0 10 -9 47 -20 83 -24
78 -71 126 -149 152 -54 18 -62 28 -33 44 34 20 98 13 132 -15z m-370 -51 c26
-33 21 -71 -15 -119 -48 -63 -146 -102 -181 -73 -22 18 -13 98 17 146 46 74
138 98 179 46z m-1548 -769 c16 -28 16 -30 -8 -59 -20 -25 -26 -28 -34 -15
-11 17 -13 70 -4 95 9 22 25 14 46 -21z m1018 22 c6 -8 10 -25 8 -38 -3 -21
-11 -24 -103 -36 -55 -6 -106 -10 -113 -7 -18 7 1 40 34 62 47 31 154 42 174
19z m-1070 -228 c-12 -65 -36 -128 -49 -128 -5 0 -14 7 -21 15 -10 12 -8 26
13 73 13 31 28 75 32 97 10 56 17 64 27 30 4 -17 3 -55 -2 -87z m-180 -132 c0
-17 -33 -76 -43 -76 -6 0 -22 -3 -33 -6 -18 -5 -22 -1 -26 26 -3 17 0 34 5 37
19 12 97 27 97 19z m669 -12 c4 -3 -174 -358 -195 -389 -21 -30 -17 -12 12 52
21 47 107 260 131 323 3 8 -17 -21 -45 -65 -28 -44 -63 -93 -77 -110 -22 -24
-18 -14 16 50 74 140 86 155 123 148 17 -3 33 -7 35 -9z m583 -80 c15 -49 26
-93 25 -98 -2 -5 -21 33 -44 85 -22 52 -38 98 -36 102 12 21 30 -7 55 -89z
m-452 80 c0 -16 -132 -415 -136 -411 -3 3 16 95 41 205 25 110 45 203 45 206
0 3 11 6 25 6 14 0 25 -3 25 -6z m77 -81 c-4 -49 -12 -171 -18 -273 -5 -101
-12 -187 -15 -189 -6 -6 -5 211 3 392 5 129 9 157 21 157 13 0 14 -14 9 -87z
m147 70 c3 -10 17 -70 31 -133 15 -63 29 -122 31 -130 3 -9 2 -11 -4 -5 -9 11
-102 261 -102 276 0 17 39 9 44 -8z m-1076 -95 c-5 -15 -76 -44 -85 -35 -3 4
2 16 12 27 20 22 79 28 73 8z m-39 -182 c10 -11 2 -16 -39 -26 -38 -9 -55 -9
-63 -1 -8 8 -6 15 9 26 24 18 78 19 93 1z m56 -100 c81 -34 66 -126 -21 -126
-102 0 -143 100 -54 133 25 9 39 8 75 -7z m-408 -2970 l28 -24 -63 1 c-64 2
-74 12 -31 34 32 17 34 17 66 -11z m3261 8 c34 -24 27 -29 -38 -29 -33 -1 -60
3 -60 7 0 11 43 38 60 38 9 0 26 -7 38 -16z"/>
<path d="M1372 5171 c-10 -6 -5 -11 19 -20 58 -20 149 -11 149 15 0 11 -18 14
-77 14 -43 0 -84 -4 -91 -9z"/>
</g>
</svg>
